<svg xmlns="http://www.w3.org/2000/svg" xmlns:xlink="http://www.w3.org/1999/xlink" viewBox="0 0 1208.8 320" width="1208.8" height="320"><circle r="1.5" cx="465.75" cy="155" fill="black"></circle><path d="M 312.750,170.000 C 316.250,168.500 316.130,168.143 319.750,167.000" stroke-width="4.603" stroke="black" fill="none" stroke-linecap="round"></path><path d="M 319.750,167.000 C 325.630,165.143 325.742,165.465 331.750,164.000" stroke-width="3.569" stroke="black" fill="none" stroke-linecap="round"></path><path d="M 331.750,164.000 C 346.242,160.465 346.180,160.187 360.750,157.000" stroke-width="2.270" stroke="black" fill="none" stroke-linecap="round"></path><path d="M 360.750,157.000 C 394.180,149.687 394.206,149.786 427.750,143.000" stroke-width="1.320" stroke="black" fill="none" stroke-linecap="round"></path><path d="M 427.750,143.000 C 480.706,132.286 480.412,130.410 533.750,122.000" stroke-width="1.125" stroke="black" fill="none" stroke-linecap="round"></path><path d="M 533.750,122.000 C 600.912,111.410 601.341,114.170 668.750,105.000" stroke-width="1.125" stroke="black" fill="none" stroke-linecap="round"></path><path d="M 668.750,105.000 C 737.341,95.670 737.899,97.375 805.750,85.000" stroke-width="1.125" stroke="black" fill="none" stroke-linecap="round"></path><path d="M 805.750,85.000 C 817.399,82.875 820.762,82.253 827.750,76.000" stroke-width="1.269" stroke="black" fill="none" stroke-linecap="round"></path><path d="M 827.750,76.000 C 830.262,73.753 828.267,69.996 824.750,68.000" stroke-width="2.362" stroke="black" fill="none" stroke-linecap="round"></path><path d="M 824.750,68.000 C 809.767,59.496 808.414,58.864 790.750,55.000" stroke-width="1.988" stroke="black" fill="none" stroke-linecap="round"></path><path d="M 790.750,55.000 C 760.414,48.364 759.846,48.728 728.750,47.000" stroke-width="1.313" stroke="black" fill="none" stroke-linecap="round"></path><path d="M 728.750,47.000 C 705.846,45.728 705.099,45.020 682.750,49.000" stroke-width="1.449" stroke="black" fill="none" stroke-linecap="round"></path><path d="M 682.750,49.000 C 668.599,51.520 666.242,51.082 655.750,60.000" stroke-width="1.835" stroke="black" fill="none" stroke-linecap="round"></path><path d="M 655.750,60.000 C 646.242,68.082 644.875,71.159 642.750,83.000" stroke-width="2.027" stroke="black" fill="none" stroke-linecap="round"></path><path d="M 642.750,83.000 C 641.375,90.659 644.000,92.034 648.750,99.000" stroke-width="2.515" stroke="black" fill="none" stroke-linecap="round"></path><path d="M 648.750,99.000 C 659.000,114.034 659.836,113.881 672.750,127.000" stroke-width="1.885" stroke="black" fill="none" stroke-linecap="round"></path><path d="M 672.750,127.000 C 691.336,145.881 693.507,143.845 711.750,163.000" stroke-width="1.488" stroke="black" fill="none" stroke-linecap="round"></path><path d="M 711.750,163.000 C 723.507,175.345 724.186,175.508 732.750,190.000" stroke-width="1.735" stroke="black" fill="none" stroke-linecap="round"></path><path d="M 732.750,190.000 C 737.186,197.508 739.501,199.494 737.750,207.000" stroke-width="2.298" stroke="black" fill="none" stroke-linecap="round"></path><path d="M 737.750,207.000 C 736.001,214.494 734.048,217.947 725.750,220.000" stroke-width="2.601" stroke="black" fill="none" stroke-linecap="round"></path><path d="M 725.750,220.000 C 685.548,229.947 683.341,230.261 640.750,231.000" stroke-width="1.125" stroke="black" fill="none" stroke-linecap="round"></path><path d="M 640.750,231.000 C 596.841,231.761 596.433,229.116 552.750,223.000" stroke-width="1.125" stroke="black" fill="none" stroke-linecap="round"></path><path d="M 552.750,223.000 C 521.433,218.616 521.450,217.468 490.750,210.000" stroke-width="1.125" stroke="black" fill="none" stroke-linecap="round"></path><path d="M 490.750,210.000 C 484.450,208.468 480.375,206.625 478.750,205.000" stroke-width="2.017" stroke="black" fill="none" stroke-linecap="round"></path><path d="M 478.750,205.000 C 477.875,204.125 482.254,204.841 485.750,205.000" stroke-width="3.082" stroke="black" fill="none" stroke-linecap="round"></path><path d="M 485.750,205.000 C 504.254,205.841 504.289,205.474 522.750,207.000" stroke-width="1.961" stroke="black" fill="none" stroke-linecap="round"></path><path d="M 522.750,207.000 C 564.789,210.474 564.639,214.274 606.750,215.000" stroke-width="1.125" stroke="black" fill="none" stroke-linecap="round"></path><path d="M 606.750,215.000 C 680.639,216.274 680.894,215.220 754.750,211.000" stroke-width="1.125" stroke="black" fill="none" stroke-linecap="round"></path><path d="M 754.750,211.000 C 803.394,208.220 803.183,205.154 851.750,201.000" stroke-width="1.125" stroke="black" fill="none" stroke-linecap="round"></path><path d="M 851.750,201.000 C 879.183,198.654 879.246,199.353 906.750,198.000" stroke-width="1.125" stroke="black" fill="none" stroke-linecap="round"></path><path d="M 906.750,198.000 C 909.746,197.853 912.486,197.473 912.750,198.000" stroke-width="2.250" stroke="black" fill="none" stroke-linecap="round"></path><path d="M 912.750,198.000 C 912.986,198.473 910.217,198.921 907.750,200.000" stroke-width="3.365" stroke="black" fill="none" stroke-linecap="round"></path><path d="M 907.750,200.000 C 894.217,205.921 894.458,206.517 880.750,212.000" stroke-width="2.255" stroke="black" fill="none" stroke-linecap="round"></path><path d="M 880.750,212.000 C 864.458,218.517 864.159,217.765 847.750,224.000" stroke-width="1.885" stroke="black" fill="none" stroke-linecap="round"></path><path d="M 847.750,224.000 C 839.159,227.265 826.529,232.535 830.750,231.000" stroke-width="2.391" stroke="black" fill="none" stroke-linecap="round"></path></svg>